<?xml version="1.0" encoding="utf-8"?>
<!-- Generator: Adobe Illustrator 16.0.0, SVG Export Plug-In . SVG Version: 6.00 Build 0)  -->
<!DOCTYPE svg PUBLIC "-//W3C//DTD SVG 1.1//EN" "http://www.w3.org/Graphics/SVG/1.1/DTD/svg11.dtd">
<svg version="1.1" xmlns="http://www.w3.org/2000/svg" xmlns:xlink="http://www.w3.org/1999/xlink" x="0px" y="0px"
	 width="1002.101px" height="1002.1px" viewBox="148.27 145.269 1002.101 1002.1"
	 enable-background="new 148.27 145.269 1002.101 1002.1" xml:space="preserve">
<g id="Layer_2" display="none">
	<rect x="148.27" y="145.269" display="inline" fill="#231F20" width="1002.101" height="1002.1"/>
</g>
<g id="Layer_1" display="none">
	<g id="layer1" display="inline">
		<path fill="#1886C3" d="M442.99,947.686c-16.967-5.06-27.208-11.442-32.881-20.266c-4.169-6.494-4.842-8.53-3.908-13.823
			c2.069-11.741,14.46-23.426,34.524-32.584c6.265-2.877,254.728-93.667,261.422-96.476l6.188-2.452l68.136,12.016
			c74.577,13.147,76.962,13.861,92.388,25.146c20.882,15.49,30.855,32.596,47.946,82.986c1.165,3.456,35.516,104.116,39.05,114.187
			c3.517,10.21,5.863,19.481,5.323,20.866c-0.854,2.356-12.905,0.379-254.268-42.036
			C567.464,970.814,448.732,949.433,442.99,947.686z"/>
		<path fill="#DF4627" d="M355.188,889.844c-1.986-4.63-29.903-85.707-51.997-150.417c-6.395-18.983-7.042-26.186-3.862-44.216
			c2.752-15.603,3.265-16.843,9.394-25.653c8.453-11.936,18.792-21.183,29.98-26.885c9.412-4.833,14.809-6.984,68.434-27.342
			c17.865-6.738,485.855-184.868,495.884-189.887c20.529-10.105,33.744-20.618,39.605-31.243c4.327-7.796,7.082-5.834,11.941,8.453
			c7.134,21.478,44.061,130.122,45.116,132.522c4.1,8.545,8.737,26.631,9.319,35.884c1.617,28.476-11.051,51.773-36.603,67.785
			c-8.128,5.063-61.543,26.783-87.462,35.645c-2.346,0.769-411.82,156.742-433.187,164.933
			c-43.218,16.586-58.195,23.684-71.388,34.054c-8.882,6.845-17.139,16.015-17.771,19.592
			C361.808,897.509,357.572,895.578,355.188,889.844z"/>
		<path fill="#1886C3" d="M449.475,473.137c-5.685-2.919-13.497-7.988-17.195-11.298c-7.04-6.111-24.184-27.732-23.804-29.878
			c0.126-0.716-9.857-21.958-12.2-29.602c-0.951-2.974-25.371-74.581-28.116-82.444c-22.548-64.637-25.053-73.049-23.032-74.463
			c0.843-0.589,114.693,19.19,262.507,45.551c241.429,42.864,261.703,46.737,269.604,50.49
			c18.533,8.728,25.312,17.155,23.239,28.894c-1.688,9.589-6.377,15.257-19.125,23.931c-10.844,7.092-19.192,10.931-40.031,18.622
			c-6.479,2.4-223.085,82.427-230.493,85.106l-13.376,4.725l-68.687-12.259C461.206,478.6,459.942,478.231,449.475,473.137z"/>
	</g>
</g>
<g id="Layer_3">
	<g id="layer1_1_">
		<path fill="#231F20" d="M442.99,952.317c-16.968-5.06-27.209-11.442-32.881-20.266c-4.17-6.494-4.842-8.53-3.908-13.823
			c2.069-11.741,14.46-23.426,34.524-32.584c6.265-2.877,254.728-93.667,261.422-96.476l6.188-2.452l68.136,12.016
			c74.577,13.147,76.962,13.861,92.388,25.146c20.882,15.49,30.855,32.596,47.946,82.986c1.165,3.456,35.516,104.116,39.05,114.187
			c3.517,10.21,5.863,19.481,5.323,20.866c-0.854,2.356-12.905,0.379-254.268-42.036
			C567.464,975.445,448.733,954.064,442.99,952.317z"/>
		<path fill="#231F20" d="M355.188,894.474c-1.986-4.63-29.903-85.707-51.997-150.417c-6.395-18.983-7.042-26.186-3.862-44.216
			c2.752-15.603,3.265-16.843,9.394-25.653c8.453-11.936,18.792-21.183,29.98-26.885c9.412-4.833,14.809-6.984,68.434-27.343
			c17.864-6.737,485.854-184.867,495.884-189.887c20.529-10.105,33.744-20.617,39.605-31.242c4.327-7.797,7.082-5.834,11.941,8.452
			c7.134,21.478,44.061,130.122,45.116,132.522c4.1,8.545,8.737,26.631,9.319,35.883c1.617,28.477-11.051,51.773-36.603,67.785
			c-8.128,5.063-61.543,26.783-87.462,35.646c-2.346,0.769-411.819,156.742-433.187,164.933
			c-43.219,16.586-58.195,23.684-71.389,34.054c-8.881,6.845-17.138,16.015-17.771,19.592
			C361.808,902.139,357.572,900.209,355.188,894.474z"/>
		<path fill="#231F20" d="M449.475,477.768c-5.686-2.919-13.497-7.987-17.195-11.298c-7.039-6.111-24.184-27.732-23.805-29.879
			c0.127-0.716-9.857-21.958-12.199-29.602c-0.951-2.975-25.371-74.581-28.116-82.444c-22.548-64.637-25.053-73.049-23.032-74.463
			c0.843-0.589,114.692,19.19,262.507,45.551c241.429,42.864,261.703,46.737,269.604,50.49
			c18.533,8.728,25.312,17.155,23.239,28.894c-1.688,9.589-6.377,15.257-19.125,23.931c-10.844,7.092-19.192,10.931-40.031,18.622
			c-6.479,2.4-223.086,82.427-230.492,85.106l-13.377,4.726l-68.687-12.26C461.206,483.231,459.942,482.861,449.475,477.768z"/>
	</g>
</g>
</svg>
